<svg viewBox="0 0 740 260" xmlns="http://www.w3.org/2000/svg" font-family="Arial, sans-serif">
  <rect width="740" height="260" fill="#f0f4ff" rx="12"/>
  <text x="370" y="24" text-anchor="middle" font-size="15" font-weight="bold" fill="#1e293b">LIMIT &amp; OFFSET — Pagination (Like Google Search Pages)</text>

  <!-- Full ordered list on left -->
  <text x="80" y="46" text-anchor="middle" font-size="12" font-weight="bold" fill="#475569">All 12 products (sorted)</text>
  <rect x="20" y="54" width="120" height="180" fill="white" rx="8" stroke="#cbd5e1" stroke-width="2"/>

  <rect x="24" y="58" width="112" height="18" fill="#dbeafe" rx="2"/>
  <text x="80" y="71" text-anchor="middle" font-size="10" fill="#1e293b">1. Laptop  75k</text>
  <rect x="24" y="78" width="112" height="18" fill="#f8fafc" rx="2"/>
  <text x="80" y="91" text-anchor="middle" font-size="10" fill="#1e293b">2. Headphones  3.5k</text>
  <rect x="24" y="98" width="112" height="18" fill="#dbeafe" rx="2"/>
  <text x="80" y="111" text-anchor="middle" font-size="10" fill="#1e293b">3. Gaming Mouse  2.2k</text>
  <rect x="24" y="118" width="112" height="18" fill="#f8fafc" rx="2"/>
  <text x="80" y="131" text-anchor="middle" font-size="10" fill="#1e293b">4. Smartphone  25k</text>
  <rect x="24" y="138" width="112" height="18" fill="#dbeafe" rx="2"/>
  <text x="80" y="151" text-anchor="middle" font-size="10" fill="#1e293b">5. Speaker  3k</text>
  <rect x="24" y="158" width="112" height="18" fill="#f8fafc" rx="2"/>
  <text x="80" y="171" text-anchor="middle" font-size="10" fill="#1e293b">6. Running Shoes  4.5k</text>
  <rect x="24" y="178" width="112" height="18" fill="#dbeafe" rx="2"/>
  <text x="80" y="191" text-anchor="middle" font-size="10" fill="#1e293b">7. Leather Wallet  1.8k</text>
  <rect x="24" y="198" width="112" height="18" fill="#f8fafc" rx="2"/>
  <text x="80" y="211" text-anchor="middle" font-size="10" fill="#1e293b">8. Backpack  1.5k</text>
  <text x="80" y="229" text-anchor="middle" font-size="10" fill="#94a3b8">... 4 more rows ...</text>

  <!-- Arrow -->
  <line x1="154" y1="144" x2="182" y2="144" stroke="#64748b" stroke-width="2"/>
  <polygon points="178,138 188,144 178,150" fill="#64748b"/>

  <!-- Page 1 -->
  <rect x="188" y="38" width="160" height="34" fill="#2563eb" rx="6 6 0 0"/>
  <text x="268" y="60" text-anchor="middle" font-size="12" font-weight="bold" fill="white">📄 Page 1</text>
  <rect x="188" y="72" width="160" height="130" fill="white" rx="0 0 8 8" stroke="#93c5fd" stroke-width="1.5"/>
  <rect x="196" y="80" width="144" height="28" fill="#dbeafe" rx="4"/>
  <text x="268" y="90" text-anchor="middle" font-size="10" font-weight="bold" fill="#1e40af">LIMIT 4 OFFSET 0</text>
  <text x="268" y="103" text-anchor="middle" font-size="10" fill="#1e40af">Skip 0, take 4</text>
  <rect x="196" y="112" width="144" height="18" fill="#dbeafe" rx="2"/>
  <text x="268" y="125" text-anchor="middle" font-size="11" fill="#1e293b">1. Laptop</text>
  <rect x="196" y="132" width="144" height="18" fill="#eff6ff" rx="2"/>
  <text x="268" y="145" text-anchor="middle" font-size="11" fill="#1e293b">2. Headphones</text>
  <rect x="196" y="152" width="144" height="18" fill="#dbeafe" rx="2"/>
  <text x="268" y="165" text-anchor="middle" font-size="11" fill="#1e293b">3. Gaming Mouse</text>
  <rect x="196" y="172" width="144" height="18" fill="#eff6ff" rx="2"/>
  <text x="268" y="185" text-anchor="middle" font-size="11" fill="#1e293b">4. Smartphone</text>

  <!-- Page 2 -->
  <rect x="368" y="38" width="160" height="34" fill="#7c3aed" rx="6 6 0 0"/>
  <text x="448" y="60" text-anchor="middle" font-size="12" font-weight="bold" fill="white">📄 Page 2</text>
  <rect x="368" y="72" width="160" height="130" fill="white" rx="0 0 8 8" stroke="#c4b5fd" stroke-width="1.5"/>
  <rect x="376" y="80" width="144" height="28" fill="#ede9fe" rx="4"/>
  <text x="448" y="90" text-anchor="middle" font-size="10" font-weight="bold" fill="#7c3aed">LIMIT 4 OFFSET 4</text>
  <text x="448" y="103" text-anchor="middle" font-size="10" fill="#7c3aed">Skip 4, take next 4</text>
  <rect x="376" y="112" width="144" height="18" fill="#ede9fe" rx="2"/>
  <text x="448" y="125" text-anchor="middle" font-size="11" fill="#1e293b">5. Speaker</text>
  <rect x="376" y="132" width="144" height="18" fill="#f5f3ff" rx="2"/>
  <text x="448" y="145" text-anchor="middle" font-size="11" fill="#1e293b">6. Running Shoes</text>
  <rect x="376" y="152" width="144" height="18" fill="#ede9fe" rx="2"/>
  <text x="448" y="165" text-anchor="middle" font-size="11" fill="#1e293b">7. Leather Wallet</text>
  <rect x="376" y="172" width="144" height="18" fill="#f5f3ff" rx="2"/>
  <text x="448" y="185" text-anchor="middle" font-size="11" fill="#1e293b">8. Backpack</text>

  <!-- Page 3 -->
  <rect x="548" y="38" width="170" height="34" fill="#16a34a" rx="6 6 0 0"/>
  <text x="633" y="60" text-anchor="middle" font-size="12" font-weight="bold" fill="white">📄 Page 3</text>
  <rect x="548" y="72" width="170" height="130" fill="white" rx="0 0 8 8" stroke="#86efac" stroke-width="1.5"/>
  <rect x="556" y="80" width="154" height="28" fill="#dcfce7" rx="4"/>
  <text x="633" y="90" text-anchor="middle" font-size="10" font-weight="bold" fill="#15803d">LIMIT 4 OFFSET 8</text>
  <text x="633" y="103" text-anchor="middle" font-size="10" fill="#15803d">Skip 8, take next 4</text>
  <rect x="556" y="112" width="154" height="18" fill="#dcfce7" rx="2"/>
  <text x="633" y="125" text-anchor="middle" font-size="11" fill="#1e293b">9. Yoga Mat</text>
  <rect x="556" y="132" width="154" height="18" fill="#f0fdf4" rx="2"/>
  <text x="633" y="145" text-anchor="middle" font-size="11" fill="#1e293b">10. T-Shirt</text>
  <rect x="556" y="152" width="154" height="18" fill="#dcfce7" rx="2"/>
  <text x="633" y="165" text-anchor="middle" font-size="11" fill="#1e293b">11. Water Bottle</text>
  <rect x="556" y="172" width="154" height="18" fill="#f0fdf4" rx="2"/>
  <text x="633" y="185" text-anchor="middle" font-size="11" fill="#1e293b">12. Desk Lamp</text>

  <!-- Formula -->
  <rect x="188" y="214" width="520" height="40" fill="#1e40af" rx="6"/>
  <text x="448" y="229" text-anchor="middle" font-size="11" font-weight="bold" fill="white">📐  Formula:  LIMIT  {page_size}  OFFSET  {(page_number - 1) × page_size}</text>
  <text x="448" y="248" text-anchor="middle" font-size="11" fill="#bfdbfe">Page 1: LIMIT 4 OFFSET 0  |  Page 2: LIMIT 4 OFFSET 4  |  Page 3: LIMIT 4 OFFSET 8</text>
</svg>
