<svg viewBox="0 0 700 220" xmlns="http://www.w3.org/2000/svg" font-family="Arial, sans-serif">
  <defs>
    <marker id="arrGA" markerWidth="8" markerHeight="8" refX="6" refY="3" orient="auto">
      <path d="M0,0 L0,6 L8,3 z" fill="#546E7A"/>
    </marker>
  </defs>

  <rect width="700" height="220" fill="#fafafa" rx="14"/>
  <text x="350" y="24" text-anchor="middle" font-size="15" font-weight="bold" fill="#1a1a2e">$group in Action — Merging Documents</text>

  <!-- Input documents (left) -->
  <text x="122" y="44" text-anchor="middle" font-size="11" font-weight="bold" fill="#546E7A">Input (5 documents)</text>

  <rect x="12" y="52" width="220" height="32" rx="6" fill="white" stroke="#1976D2" stroke-width="1.5"/>
  <rect x="12" y="52" width="6" height="32" rx="3" fill="#1976D2"/>
  <text x="130" y="68" text-anchor="middle" font-size="10" fill="#333">category: <tspan font-weight="bold" fill="#1565c0">"Phones"</tspan>  amount: 79999</text>
  <text x="130" y="80" text-anchor="middle" font-size="9" fill="#777">product: "iPhone 15"</text>

  <rect x="12" y="90" width="220" height="32" rx="6" fill="white" stroke="#1976D2" stroke-width="1.5"/>
  <rect x="12" y="90" width="6" height="32" rx="3" fill="#1976D2"/>
  <text x="130" y="106" text-anchor="middle" font-size="10" fill="#333">category: <tspan font-weight="bold" fill="#1565c0">"Phones"</tspan>  amount: 69999</text>
  <text x="130" y="118" text-anchor="middle" font-size="9" fill="#777">product: "Galaxy S24"</text>

  <rect x="12" y="128" width="220" height="32" rx="6" fill="white" stroke="#E65100" stroke-width="1.5"/>
  <rect x="12" y="128" width="6" height="32" rx="3" fill="#E65100"/>
  <text x="130" y="144" text-anchor="middle" font-size="10" fill="#333">category: <tspan font-weight="bold" fill="#e65100">"Laptops"</tspan>  amount: 114999</text>
  <text x="130" y="156" text-anchor="middle" font-size="9" fill="#777">product: "MacBook Air"</text>

  <rect x="12" y="166" width="220" height="32" rx="6" fill="white" stroke="#1976D2" stroke-width="1.5"/>
  <rect x="12" y="166" width="6" height="32" rx="3" fill="#1976D2"/>
  <text x="130" y="182" text-anchor="middle" font-size="10" fill="#333">category: <tspan font-weight="bold" fill="#1565c0">"Phones"</tspan>  amount: 52999</text>
  <text x="130" y="194" text-anchor="middle" font-size="9" fill="#777">product: "Pixel 8"</text>

  <rect x="12" y="137" width="220" height="32" rx="6" fill="transparent"/>
  <rect x="12" y="204" width="220" height="32" rx="6" fill="white" stroke="#E65100" stroke-width="1.5"/>
  <rect x="12" y="204" width="6" height="32" rx="3" fill="#E65100"/>
  <text x="130" y="220" text-anchor="middle" font-size="10" fill="#333">category: <tspan font-weight="bold" fill="#e65100">"Laptops"</tspan>  amount: 134999</text>

  <!-- Center: $group arrow -->
  <line x1="232" y1="133" x2="280" y2="133" stroke="#546E7A" stroke-width="2.5" marker-end="url(#arrGA)"/>
  <rect x="234" y="112" width="96" height="40" rx="7" fill="#1A237E"/>
  <text x="282" y="128" text-anchor="middle" font-size="10" font-weight="bold" fill="white">$group</text>
  <text x="282" y="142" text-anchor="middle" font-size="9" fill="#90CAF9">by category</text>

  <!-- Output groups (right) -->
  <text x="495" y="44" text-anchor="middle" font-size="11" font-weight="bold" fill="#546E7A">Output (2 groups)</text>

  <!-- Phones group -->
  <rect x="290" y="52" width="398" height="80" rx="9" fill="#E3F2FD" stroke="#1565C0" stroke-width="2"/>
  <text x="400" y="74" text-anchor="middle" font-size="11" font-weight="bold" fill="#1565c0">_id: "Phones"</text>
  <text x="400" y="92" text-anchor="middle" font-size="10" fill="#555">totalRevenue: <tspan font-weight="bold" fill="#1976D2">202,997</tspan>  (79999+69999+52999)</text>
  <text x="400" y="108" text-anchor="middle" font-size="10" fill="#555">orderCount: <tspan font-weight="bold" fill="#1976D2">3</tspan></text>

  <!-- Laptops group -->
  <rect x="290" y="148" width="398" height="70" rx="9" fill="#FBE9E7" stroke="#E65100" stroke-width="2"/>
  <text x="400" y="170" text-anchor="middle" font-size="11" font-weight="bold" fill="#e65100">_id: "Laptops"</text>
  <text x="400" y="188" text-anchor="middle" font-size="10" fill="#555">totalRevenue: <tspan font-weight="bold" fill="#BF360C">249,998</tspan>  (114999+134999)</text>
  <text x="400" y="204" text-anchor="middle" font-size="10" fill="#555">orderCount: <tspan font-weight="bold" fill="#BF360C">2</tspan></text>
</svg>
