<svg viewBox="0 0 720 380" xmlns="http://www.w3.org/2000/svg" font-family="Arial, sans-serif">
  <defs>
    <marker id="arrS" markerWidth="8" markerHeight="8" refX="6" refY="3" orient="auto">
      <path d="M0,0 L0,6 L8,3 z" fill="#5C6BC0"/>
    </marker>
    <marker id="arrD" markerWidth="7" markerHeight="7" refX="5" refY="3" orient="auto">
      <path d="M0,0 L0,6 L7,3 z" fill="#7986CB"/>
    </marker>
  </defs>

  <rect width="720" height="380" fill="#f5f5f5" rx="14"/>
  <text x="360" y="28" text-anchor="middle" font-size="16" font-weight="bold" fill="#1a1a2e">MongoDB Server — The Big Picture</text>

  <!-- MongoDB Server -->
  <rect x="210" y="42" width="300" height="48" rx="12" fill="#1A237E"/>
  <text x="360" y="72" text-anchor="middle" font-size="15" font-weight="bold" fill="white">🖥️  MongoDB Server (mongod)</text>

  <!-- Lines to databases -->
  <line x1="310" y1="90" x2="120" y2="132" stroke="#3949AB" stroke-width="2" marker-end="url(#arrS)"/>
  <line x1="360" y1="90" x2="360" y2="132" stroke="#3949AB" stroke-width="2" marker-end="url(#arrS)"/>
  <line x1="410" y1="90" x2="600" y2="132" stroke="#3949AB" stroke-width="2" marker-end="url(#arrS)"/>

  <!-- Databases -->
  <rect x="18" y="132" width="200" height="40" rx="9" fill="#303F9F"/>
  <text x="118" y="157" text-anchor="middle" font-size="13" font-weight="bold" fill="white">📦 ecommerce</text>

  <rect x="260" y="132" width="200" height="40" rx="9" fill="#303F9F"/>
  <text x="360" y="157" text-anchor="middle" font-size="13" font-weight="bold" fill="white">📦 blog</text>

  <rect x="502" y="132" width="200" height="40" rx="9" fill="#303F9F"/>
  <text x="602" y="157" text-anchor="middle" font-size="13" font-weight="bold" fill="white">📦 chat_app</text>

  <!-- Lines from ecommerce to collections -->
  <line x1="70" y1="172" x2="50" y2="210" stroke="#5C6BC0" stroke-width="1.5" marker-end="url(#arrD)"/>
  <line x1="118" y1="172" x2="118" y2="210" stroke="#5C6BC0" stroke-width="1.5" marker-end="url(#arrD)"/>
  <line x1="168" y1="172" x2="188" y2="210" stroke="#5C6BC0" stroke-width="1.5" marker-end="url(#arrD)"/>

  <!-- Collections under ecommerce -->
  <rect x="8" y="210" width="85" height="30" rx="6" fill="#5C6BC0"/>
  <text x="50" y="229" text-anchor="middle" font-size="10" font-weight="bold" fill="white">users</text>

  <rect x="76" y="210" width="85" height="30" rx="6" fill="#5C6BC0"/>
  <text x="118" y="229" text-anchor="middle" font-size="10" font-weight="bold" fill="white">products</text>

  <rect x="148" y="210" width="80" height="30" rx="6" fill="#5C6BC0"/>
  <text x="188" y="229" text-anchor="middle" font-size="10" font-weight="bold" fill="white">orders</text>

  <!-- Lines from users to documents -->
  <line x1="32" y1="240" x2="22" y2="272" stroke="#7986CB" stroke-width="1" marker-end="url(#arrD)"/>
  <line x1="68" y1="240" x2="80" y2="272" stroke="#7986CB" stroke-width="1" marker-end="url(#arrD)"/>

  <!-- Documents under users -->
  <rect x="5" y="272" width="62" height="58" rx="5" fill="white" stroke="#9FA8DA" stroke-width="1.5"/>
  <text x="36" y="290" text-anchor="middle" font-size="8" font-weight="bold" fill="#3949AB">📄 doc</text>
  <text x="36" y="305" text-anchor="middle" font-size="8" fill="#444">"Amit"</text>
  <text x="36" y="320" text-anchor="middle" font-size="8" fill="#666">age: 25</text>

  <rect x="72" y="272" width="62" height="58" rx="5" fill="white" stroke="#9FA8DA" stroke-width="1.5"/>
  <text x="103" y="290" text-anchor="middle" font-size="8" font-weight="bold" fill="#3949AB">📄 doc</text>
  <text x="103" y="305" text-anchor="middle" font-size="8" fill="#444">"Sara"</text>
  <text x="103" y="320" text-anchor="middle" font-size="8" fill="#666">age: 30</text>

  <!-- Lines from products -->
  <line x1="105" y1="240" x2="148" y2="272" stroke="#7986CB" stroke-width="1" marker-end="url(#arrD)"/>
  <line x1="130" y1="240" x2="212" y2="272" stroke="#7986CB" stroke-width="1" marker-end="url(#arrD)"/>

  <!-- Documents under products -->
  <rect x="138" y="272" width="68" height="58" rx="5" fill="white" stroke="#9FA8DA" stroke-width="1.5"/>
  <text x="172" y="290" text-anchor="middle" font-size="8" font-weight="bold" fill="#3949AB">📄 doc</text>
  <text x="172" y="305" text-anchor="middle" font-size="8" fill="#444">"Laptop"</text>
  <text x="172" y="320" text-anchor="middle" font-size="8" fill="#666">₹50,000</text>

  <rect x="210" y="272" width="68" height="58" rx="5" fill="white" stroke="#9FA8DA" stroke-width="1.5"/>
  <text x="244" y="290" text-anchor="middle" font-size="8" font-weight="bold" fill="#3949AB">📄 doc</text>
  <text x="244" y="305" text-anchor="middle" font-size="8" fill="#444">"Phone"</text>
  <text x="244" y="320" text-anchor="middle" font-size="8" fill="#666">₹15,000</text>

  <!-- Blog collections -->
  <line x1="338" y1="172" x2="330" y2="210" stroke="#5C6BC0" stroke-width="1.5" marker-end="url(#arrD)"/>
  <line x1="382" y1="172" x2="390" y2="210" stroke="#5C6BC0" stroke-width="1.5" marker-end="url(#arrD)"/>

  <rect x="288" y="210" width="80" height="30" rx="6" fill="#5C6BC0"/>
  <text x="328" y="229" text-anchor="middle" font-size="10" font-weight="bold" fill="white">posts</text>

  <rect x="370" y="210" width="80" height="30" rx="6" fill="#5C6BC0"/>
  <text x="410" y="229" text-anchor="middle" font-size="10" font-weight="bold" fill="white">authors</text>

  <!-- Chat_app collections -->
  <line x1="578" y1="172" x2="555" y2="210" stroke="#5C6BC0" stroke-width="1.5" marker-end="url(#arrD)"/>
  <line x1="626" y1="172" x2="640" y2="210" stroke="#5C6BC0" stroke-width="1.5" marker-end="url(#arrD)"/>

  <rect x="500" y="210" width="85" height="30" rx="6" fill="#5C6BC0"/>
  <text x="542" y="229" text-anchor="middle" font-size="10" font-weight="bold" fill="white">messages</text>

  <rect x="596" y="210" width="100" height="30" rx="6" fill="#5C6BC0"/>
  <text x="646" y="229" text-anchor="middle" font-size="10" font-weight="bold" fill="white">chat_rooms</text>

  <!-- Legend -->
  <rect x="460" y="272" width="248" height="92" rx="8" fill="white" stroke="#ddd" stroke-width="1.5"/>
  <text x="584" y="294" text-anchor="middle" font-size="11" font-weight="bold" fill="#333">Legend</text>
  <rect x="476" y="304" width="14" height="12" rx="3" fill="#1A237E"/>
  <text x="498" y="315" font-size="10" fill="#555">MongoDB Server</text>
  <rect x="476" y="322" width="14" height="12" rx="3" fill="#303F9F"/>
  <text x="498" y="333" font-size="10" fill="#555">Database</text>
  <rect x="476" y="340" width="14" height="12" rx="3" fill="#5C6BC0"/>
  <text x="498" y="351" font-size="10" fill="#555">Collection</text>
  <rect x="580" y="304" width="14" height="12" rx="3" fill="white" stroke="#9FA8DA" stroke-width="1"/>
  <text x="602" y="315" font-size="10" fill="#555">Document (📄)</text>
</svg>
